<?xml version="1.0" encoding="iso-8859-1"?>
<!-- Generator: Adobe Illustrator 19.0.0, SVG Export Plug-In . SVG Version: 6.00 Build 0)  -->
<svg version="1.1" id="Capa_1" fill="#0171d3" xmlns="http://www.w3.org/2000/svg" xmlns:xlink="http://www.w3.org/1999/xlink" x="0px" y="0px"
	 viewBox="0 0 20 20" xml:space="preserve">
<g>
    	<g id="custom_1" clip-path="url(#SVGID_2_)">
    		<rect fill="#FFFFFF" width="20" height="20"></rect>
    		<g id="Group_1" transform="translate(-1400 1057)">
    			<g id="Rectangle_2891" transform="translate(1400 -1057)">
    				<path fill="none" d="M4,0h12c2.2,0,4,1.8,4,4v12c0,2.2-1.8,4-4,4H4c-2.2,0-4-1.8-4-4V4C0,1.8,1.8,0,4,0z"></path>
    				<path fill="none" stroke="#0171d3" d="M4,0.5h12c1.9,0,3.5,1.6,3.5,3.5v12c0,1.9-1.6,3.5-3.5,3.5H4c-1.9,0-3.5-1.6-3.5-3.5V4
    					C0.5,2.1,2.1,0.5,4,0.5z"></path>
    			</g>
    			<g id="Group_1290" transform="translate(1404 -1053)">
    				<path id="Path_1417" d="M12,0v4.9L10.1,3L7.9,5.2L6.8,4.1L9,1.9L7.1,0H12z"></path>
    				<path id="Path_1418" d="M5.2,7.9L3,10.1L4.9,12H0V7.1L1.9,9l2.2-2.2L5.2,7.9z"></path>
    				<path id="Path_1419" d="M5.2,7.9"></path>
    			</g>
    		</g>
    	</g>
    </g>
</svg>
