<?xml version="1.0" encoding="UTF-8"?>
<svg width="207px" height="50px" viewBox="0 0 207 50" version="1.1" xmlns="http://www.w3.org/2000/svg" xmlns:xlink="http://www.w3.org/1999/xlink">
    <!-- Generator: Sketch 57.1 (83088) - https://sketch.com -->
    <title>Blue Gradient</title>
    <desc>Created with Sketch.</desc>
    <defs>
        <linearGradient x1="22.3639847%" y1="25.9467121%" x2="89.0485456%" y2="100%" id="linearGradient-1">
            <stop stop-color="#0050C8" stop-opacity="0.2" offset="0%"></stop>
            <stop stop-color="#0050C8" stop-opacity="0.6" offset="100%"></stop>
        </linearGradient>
    </defs>
    <g id="Access" stroke="none" stroke-width="1" fill="none" fill-rule="evenodd">
        <g id="1.1.1-Company-Portal-|-Access-|-Sign-in-Email-&amp;-Password-|-Rest" transform="translate(-616.000000, -325.000000)">
            <g id="Group-2" transform="translate(496.000000, 325.000000)">
                <g id="Blue-Gradient" transform="translate(120.000000, 0.000000)">
                    <g id="Logo">
                        <path d="M48.1372984,3.82351936 C46.9940508,2.99487775 45.7941449,2.24915284 44.5465951,1.59194695 C42.3988949,0.561797155 40.054377,0.0185201771 37.677161,0 C35.296699,-0.0102552421 32.9459456,0.534466641 30.8077268,1.59194695 C25.8765479,3.85403311 20.7179309,8.68842858 15.842102,17.1315838 C15.842102,17.1315838 6.11258409,34.0412882 1.04856526,42.9401154 C0.500097401,43.9033329 -3.80713643,50.9174274 10.2185453,49.8992852 C19.7387397,49.2076401 27.8963185,43.1231979 32.7610775,35.3666021 C32.7610775,35.3666021 47.5747415,10.2181847 48.8316889,7.71910839 C50.0886364,5.22003208 48.5972063,4.15103363 48.1393112,3.82453648" id="Fill-1-Copy-3" fill="#0050C8"></path>
                        <path d="M42.8660159,36.5998635 C48.5435056,43.0381639 58.0663873,49.1990474 67.3547203,49.9148641 C68.6702064,50.040881 69.99524,50.0269669 71.3078235,49.8733528 C77.699026,49.0006032 75.7189512,45.6807121 75.7149246,45.6746373 C75.7340509,45.7080488 55.6886868,12.9961367 55.6886868,12.9961367 C53.1156968,8.25878681 51.3047387,12.1790729 51.3047387,12.1790729 L42.671733,27.4177677 C42.671733,27.4177677 39.3206047,32.5813677 42.8660159,36.6029009" id="Fill-3-Copy-2" fill="url(#linearGradient-1)"></path>
                    </g>
                    <g id="Iso" transform="translate(88.945312, 14.754098)" fill="#0050C8">
                        <path d="M10.3474477,10.6668595 C8.57358558,10.591501 6.80446447,10.899806 5.16368457,11.5702349 C3.9555315,12.0651142 3.18963294,13.2539402 3.2471171,14.5451264 C3.14725798,15.6064086 3.63980541,16.637288 4.53252177,17.2354199 C5.501981,17.7949236 6.61260112,18.0700852 7.73449391,18.0287243 C8.62435608,18.0481013 9.50810903,17.8790433 10.3263755,17.5329091 C11.030457,17.229504 11.6614451,16.7820258 12.1777194,16.2199903 C12.6795126,15.6614698 13.0645319,15.010359 13.3106015,14.3041602 C13.5763345,13.5487079 13.7232073,12.7574364 13.7460938,11.9579624 L13.7460938,10.6688428 L10.3474477,10.6668595 Z M0.919522024,3.11888556 C1.95467309,2.05466783 3.22407514,1.24637534 4.62680604,0.758270323 C6.02529266,0.258796727 7.49909082,0.00233121979 8.98426297,0 C11.9904389,0 14.1583478,0.707718968 15.4879897,2.1231569 C16.8176316,3.53859484 17.4834513,5.68968802 17.4854487,8.57643644 L17.4854487,17.282577 C17.4854487,17.8605919 17.5144119,18.4592263 17.5723382,19.0784804 C17.6302645,19.6977345 17.7025059,20.2681001 17.7890625,20.7895773 L14.534203,20.7895773 C14.411266,20.2859698 14.3442794,19.7703578 14.3344571,19.2520844 C14.3191432,18.6887029 14.3121521,18.1898408 14.3134837,17.7554982 L14.2265943,17.7554982 C13.5510028,18.8046711 12.6374478,19.6800491 11.5599864,20.3106697 C10.3393693,21.0030572 8.95218938,21.3481228 7.54908864,21.3083938 C6.56023474,21.3151649 5.57528461,21.1838585 4.62281112,20.9182837 C3.76612523,20.682921 2.95960071,20.2934199 2.24283865,19.7689055 C1.56786819,19.2690854 1.01250666,18.6256781 0.616906977,17.8852024 C0.200316548,17.0849224 -0.00847541871,16.1929608 0.00967942296,15.2911197 C-0.0742401479,13.8600969 0.38993738,12.4507745 1.30802781,11.3491117 C2.19184198,10.3851 3.30178852,9.65582364 4.53791911,9.22695256 C5.88035614,8.75300807 7.28044836,8.46139211 8.70062379,8.35993031 C10.1893966,8.24485946 11.554327,8.18732404 12.7954149,8.18732404 L14.0937632,8.18732404 L14.0937632,7.58070778 C14.1830301,6.32597232 13.6964915,5.09873583 12.7714453,4.24531608 C11.7115002,3.43666296 10.3953121,3.03674905 9.06416133,3.11888556 C7.96490535,3.1192752 6.87337324,3.30236279 5.83427004,3.66064976 C4.79452461,4.01242388 3.84137038,4.58068007 3.03782736,5.32784674 L0.919522024,3.11888556 Z" id="Fill-4-Copy-2"></path>
                        <path d="M41.0652487,16.0623188 C41.0652487,16.9736585 41.0940874,17.8259905 41.151765,18.6193149 C41.2094425,19.4126393 41.2382812,20.1387606 41.2382812,20.7976788 L38.043145,20.7976788 C38.043145,20.2574314 38.0288914,19.7165284 38.0003841,19.1749698 C37.9718768,18.6334111 37.9576232,18.0784119 37.9576232,17.509972 L37.8711069,17.509972 C37.6196285,18.0244423 37.2921918,18.499071 36.8995389,18.9182867 C36.4615881,19.3900582 35.9595845,19.7994728 35.4078786,20.1348268 C34.8017069,20.5040778 34.1481594,20.7911892 33.4647426,20.98847 C32.7078149,21.2076208 31.9224453,21.3156428 31.1337749,21.309078 C29.9611069,21.3362003 28.7946504,21.1329621 27.7019619,20.7111343 C26.7845429,20.3457819 25.9647414,19.7760023 25.3063556,19.0461365 C24.6524738,18.2973038 24.1734056,17.4152228 23.9032005,16.4625871 C23.5918547,15.3867904 23.4391256,14.2721882 23.4497358,13.1532441 L23.4497358,0.820655591 L26.8169102,0.820655591 L26.8169102,12.8188677 C26.7367119,14.2289761 27.131555,15.6255853 27.9396331,16.7900793 C28.7977285,17.8071696 30.1020297,18.3485093 31.4370791,18.2416662 C32.4094683,18.2659217 33.3751522,18.0761267 34.2642725,17.6860113 C35.0373447,17.3311963 35.7061353,16.7872456 36.2074085,16.1055911 C36.73453,15.3724569 37.1155661,14.5467041 37.3301315,13.672511 C37.5843369,12.6530173 37.7076242,11.6059071 37.6970799,10.5559262 L37.6970799,0.819672131 L41.0642542,0.819672131 L41.0642542,16.0633023" id="Fill-5-Copy-2"></path>
                        <path d="M47.0689182,5.24974449 C47.0689182,4.33927188 47.0405048,3.48713768 46.9836779,2.69334191 C46.926851,1.89954613 46.8984375,1.17392109 46.8984375,0.516466782 L50.0454726,0.516466782 C50.0454726,1.05724425 50.0598426,1.59769398 50.0885827,2.13781596 C50.1173227,2.67793794 50.1326725,3.23149742 50.1346321,3.79849441 L50.2198724,3.79849441 C50.4675411,3.28408484 50.7901586,2.809552 51.177112,2.39050652 C51.6086648,1.91890896 52.1032555,1.50959722 52.6467734,1.17424883 C53.2437929,0.805341688 53.887343,0.518310108 54.5602727,0.320803661 C55.3064027,0.10184496 56.0804919,-0.00614804512 56.8578435,0.000270106593 C57.085168,0.000669007905 57.3122523,0.0151170888 57.5378068,0.0435323042 C57.7706637,0.0731622663 57.9992243,0.130256537 58.21875,0.213631399 L58.006139,3.58611635 C57.426438,3.41364192 56.824645,3.3275101 56.2200104,3.33047609 C54.4973595,3.18343952 52.8198299,3.93275257 51.7757541,5.31562102 C50.7709407,6.94501518 50.288413,8.84452994 50.3932925,10.7578088 L50.3932925,20.4918033 L47.0757767,20.4918033 L47.0757767,5.25171095" id="Fill-6-Copy-2"></path>
                        <path d="M63.8793035,10.6564774 C63.8695217,11.6454369 64.0404418,12.6282939 64.3841869,13.5597531 C65.027588,15.3088125 66.3926267,16.7212439 68.153646,17.4600838 C70.0778264,18.2236879 72.2355581,18.2236879 74.1597384,17.4600838 C75.9207578,16.7212439 77.2857964,15.3088125 77.9291975,13.5597531 C78.6017258,11.678541 78.6017258,9.63343722 77.9291975,7.75222514 C77.2858215,6.00292187 75.9208202,4.59017553 74.1597384,3.85091789 C72.2354293,3.0879454 70.0779551,3.0879454 68.153646,3.85091789 C66.3925643,4.59017553 65.0275629,6.00292187 64.3841869,7.75222514 C64.040489,8.68403416 63.8695721,9.6672033 63.8793035,10.6564774 L63.8793035,10.6564774 Z M59.8389177,10.6557377 C59.8185957,9.17128681 60.1007947,7.69806599 60.6685756,6.32450554 C61.1927362,5.06682172 61.9643552,3.92543448 62.9383186,2.96707724 C63.9252774,2.01171121 65.0992584,1.26734946 66.3876844,0.780009533 C69.2039811,-0.260003178 72.3034117,-0.260003178 75.1197085,0.780009533 C76.4076344,1.26774931 77.5812088,2.01207027 78.5680686,2.96707724 C79.5417692,3.92585534 80.313645,5.0671167 80.8388172,6.32450554 C81.9443526,9.10782952 81.9443526,12.2036459 80.8388172,14.9869699 C80.3140012,16.244548 79.5420808,17.3858753 78.5680686,18.3443982 C77.581191,19.2993829 76.4076215,20.0437008 75.1197085,20.5314659 C72.3034117,21.5714786 69.2039811,21.5714786 66.3876844,20.5314659 C65.0992713,20.0441006 63.9252953,19.2997419 62.9383186,18.3443982 C61.9640628,17.3862805 61.1924018,16.2448312 60.6685756,14.9869699 C60.1000262,13.6135748 59.817139,12.1403325 59.8369064,10.6557377 L59.8389177,10.6557377 Z" id="Fill-7-Copy-2"></path>
                        <path d="M86.6899972,5.2458066 C86.6899972,4.33533369 86.6615862,3.48319922 86.6047642,2.68940318 C86.5479422,1.89560715 86.5195312,1.16998187 86.5195312,0.512527353 L89.6711925,0.512527353 C89.6711925,1.053305 89.6855612,1.5937549 89.7142988,2.13387706 C89.7430364,2.67399922 89.7574051,3.22886985 89.7574051,3.79848897 L89.8416584,3.79848897 C90.0891917,3.28401309 90.4117923,2.80946388 90.7988151,2.39050063 C91.2304088,1.91898561 91.7249445,1.50968375 92.2683494,1.17424254 C92.865596,0.805203098 93.509432,0.518166009 94.1826627,0.320797097 C94.9284105,0.101919646 95.7020977,-0.00607270903 96.479055,0.000263437804 C96.7066862,0.000639391671 96.9340782,0.015087488 97.1599392,0.0435256495 C97.3924503,0.0731954299 97.6206621,0.130289686 97.8398438,0.2136248 L97.6272511,3.58611084 C97.0475973,3.41365028 96.4458585,3.32751872 95.8412771,3.3304705 C94.1187435,3.18324461 92.4412721,3.9325968 91.3974054,5.31561608 C90.3924442,6.94491061 89.9099392,8.84450127 90.0150635,10.7578057 L90.0150635,20.4918033 L86.6978347,20.4918033 L86.6978347,5.25170599" id="Fill-8-Copy-2"></path>
                        <path d="M110.614434,10.6668682 C108.840232,10.5914768 107.070768,10.8997861 105.429685,11.5702523 C104.221302,12.0651364 103.455258,13.2539739 103.512753,14.5451726 C103.412879,15.60623 103.905064,16.6369694 104.797399,17.2354922 C105.767211,17.7945922 106.87792,18.0697262 107.99998,18.0288043 C108.889998,18.048028 109.773886,17.8789747 110.592354,17.5329842 C111.29627,17.2295604 111.927047,16.7820701 112.443046,16.2200527 C112.94515,15.6616813 113.330269,15.0105195 113.576144,14.3042041 C113.841927,13.5487444 113.988828,12.7574653 114.011719,11.9579836 L114.011719,10.6688514 L110.614434,10.6668682 Z M101.187999,3.11888556 C102.222634,2.05465461 103.491578,1.24634752 104.893877,0.758270323 C106.2922,0.258758554 107.765843,0.00229189108 109.250855,0 C112.256035,0 114.423706,0.707718968 115.753867,2.1231569 C117.084029,3.53859484 117.749776,5.68968802 117.751107,8.57643644 L117.751107,17.282577 C117.751107,17.8605919 117.780067,18.4592263 117.837987,19.0784804 C117.895907,19.6977345 117.96814,20.2681001 118.054688,20.7895773 L114.803181,20.7895773 C114.680505,20.285924 114.613529,19.7703392 114.603457,19.2520844 C114.588145,18.6887029 114.581155,18.1898408 114.582486,17.7554982 L114.495607,17.7554982 C113.820401,18.8045795 112.907292,19.6799541 111.83029,20.3106697 C110.609807,21.0030572 109.22278,21.3481228 107.819833,21.3083938 C106.83075,21.3153103 105.845559,21.184002 104.892879,20.9182837 C104.034545,20.6839592 103.226346,20.2947621 102.508174,19.7699032 C101.833027,19.2703534 101.277673,18.6268844 100.882421,17.8862001 C100.465877,17.0859201 100.257108,16.1939586 100.275261,15.2921174 C100.191553,13.861121 100.655655,12.451871 101.573466,11.3501095 C102.457465,10.3859602 103.567647,9.65667417 104.804001,9.22795028 C106.145939,8.75397663 107.545551,8.46235857 108.96525,8.36092803 C110.453194,8.24585719 111.817974,8.18832176 113.059591,8.18832176 L114.357797,8.18832176 L114.357797,7.5817055 C114.446906,6.32699283 113.960446,5.09981803 113.035624,4.24631381 C111.975754,3.43774159 110.659742,3.03783707 109.328748,3.11988329 C108.229608,3.12021728 107.138187,3.30330641 106.099211,3.66164748 C105.05958,4.01342161 104.106531,4.58167779 103.303076,5.32884447 L101.187999,3.11888556 Z" id="Fill-9-Copy-2"></path>
                    </g>
                </g>
            </g>
        </g>
    </g>
</svg>