<?xml version="1.0" encoding="UTF-8"?>
<svg xmlns="http://www.w3.org/2000/svg" xmlns:xlink="http://www.w3.org/1999/xlink" width="94px" height="61px" version="1.1" viewBox="0 0 94 61">
<!--Generator: Sketch 57.1 (83088) - https://sketch.com-->
    <title>
        Logo
    </title>
    <desc>
        Created with Sketch.
    </desc>
    <defs>
        <linearGradient id="linearGradient-1" x1="21.6015261%" x2="90.1258681%" y1="25.9467121%" y2="100%">
            <stop offset="0%" stop-color="#0050C8" stop-opacity="0.2"/>
            <stop offset="100%" stop-color="#0050C8" stop-opacity="0.6"/>
        </linearGradient>
    </defs>
    <g id="Page-1" fill="none" fill-rule="evenodd" stroke="none" stroke-width="1">
        <g id="Blue-Gradient" transform="translate(-272.000000, -369.000000)">
            <g id="Logo" transform="translate(272.000000, 369.000000)">
                <g>
                    <path id="Fill-1-Copy-3" fill="#0050C8" d="M59.5321179,4.66469361 C58.1182464,3.65375086 56.6343048,2.74396647 55.0914413,1.94217527 C52.4353483,0.685392529 49.5358478,0.022594616 46.5959092,0 C43.6519563,-0.0125113953 40.7447443,0.652049301 38.1003771,1.94217527 C32.0019143,4.70192039 25.6221755,10.5998829 19.5921648,20.9005323 C19.5921648,20.9005323 7.55952429,41.5303716 1.29677636,52.3869408 C0.618477945,53.5620661 -4.70834263,62.1192614 12.637428,60.8771279 C24.411195,60.033321 34.4997949,52.6103015 40.5161152,43.1472546 C40.5161152,43.1472546 58.8363953,12.4661853 60.390881,9.41731223 C61.9453667,6.36843914 60.1008929,5.06426103 59.534607,4.66593451"/>
                    <path id="Fill-3-Copy-2" fill="url(#linearGradient-1)" d="M53.0130438,44.6518334 C60.0344804,52.50656 71.8115708,60.0228379 83.2985913,60.8961342 C84.9254727,61.0498749 86.5641616,61.0328997 88.1874532,60.8454905 C96.0915491,59.7807359 93.6427609,55.7304688 93.6377811,55.7230575 C93.6614349,55.7638196 68.871033,15.8552868 68.871033,15.8552868 C65.6889777,10.0757199 63.4493386,14.858469 63.4493386,14.858469 L52.7727712,33.4496766 C52.7727712,33.4496766 48.6283807,39.7492686 53.0130438,44.6555391"/>
                </g>
            </g>
        </g>
    </g>
</svg>
