<svg id="Layer_1" data-name="Layer 1" xmlns="http://www.w3.org/2000/svg" viewBox="0 0 102 66.29"><defs><style>.cls-1{fill:#0858a1;}.cls-2{fill:#1a99d2;}</style></defs><title>aurora_app_logo_final</title><path class="cls-1" d="M64.45,27.29a38.93,38.93,0,0,0-4.81-3,22,22,0,0,0-9.2-2.11,20.78,20.78,0,0,0-9.19,2.11c-6.6,3-13.51,9.4-20,20.59,0,0-13,22.4-19.81,34.19-.73,1.27-6.5,10.57,12.28,9.22,12.75-.92,23.67-9,30.18-19.26,0,0,19.83-33.31,21.52-36.62S65.06,27.72,64.45,27.29Z" transform="translate(0 -22.22)"/><path class="cls-2" d="M57.64,70.69C65.24,79.25,78,87.45,90.42,88.41a25.26,25.26,0,0,0,5.29-.06c8.55-1.16,5.9-5.58,5.9-5.59h0L74.8,39.28c-3.44-6.31-5.87-1.09-5.87-1.09L57.38,58.46S52.89,65.33,57.64,70.69Z" transform="translate(0 -22.22)"/></svg>